<svg width="48" height="48" viewBox="0 0 48 48" fill="none" xmlns="http://www.w3.org/2000/svg">
<rect width="48" height="48" rx="24" fill="#FF3B8A"/>
<path d="M17.694 32.3161C16.4445 32.3161 15.3381 32.0677 14.3746 31.571C13.4263 31.0591 12.6811 30.3516 12.1392 29.4484C11.5972 28.5452 11.3263 27.5065 11.3263 26.3323C11.3263 25.0978 11.6123 24.0065 12.1843 23.0581C12.7564 22.1097 13.5392 21.3645 14.5327 20.8226C15.5263 20.2806 16.6703 20.0097 17.965 20.0097C19.2295 20.0097 20.3359 20.2581 21.2843 20.7548C22.2478 21.2516 22.9929 21.9516 23.5198 22.8548C24.0617 23.743 24.3327 24.7817 24.3327 25.971C24.3327 27.2054 24.0467 28.3043 23.4746 29.2677C22.9026 30.2161 22.1198 30.9613 21.1263 31.5032C20.1327 32.0452 18.9886 32.3161 17.694 32.3161ZM17.7843 31.4355C18.7929 31.4355 19.5832 30.9538 20.1553 29.9903C20.7424 29.0118 21.0359 27.7022 21.0359 26.0613C21.0359 24.4505 20.7499 23.186 20.1779 22.2677C19.6209 21.3344 18.8531 20.8677 17.8746 20.8677C16.8811 20.8677 16.0908 21.357 15.5037 22.3355C14.9166 23.2989 14.623 24.6086 14.623 26.2645C14.623 27.8602 14.9015 29.1247 15.4585 30.0581C16.0306 30.9763 16.8058 31.4355 17.7843 31.4355ZM37.3208 32.1129C37.2154 32.0677 36.9671 32.0376 36.5757 32.0226C36.1843 32.0075 35.7703 32 35.3337 32H26.7079V31.1419C27.5058 30.5247 28.2735 29.9 29.0111 29.2677C29.7638 28.6355 30.4337 27.9957 31.0208 27.3484C31.623 26.7011 32.0896 26.0387 32.4208 25.3613C32.7671 24.6839 32.9402 23.9839 32.9402 23.2613C32.9402 22.5237 32.752 21.9742 32.3757 21.6129C31.9993 21.2366 31.4348 21.0484 30.6821 21.0484C30.1552 21.0484 29.7337 21.1387 29.4176 21.3194C29.1015 21.4849 28.9434 21.7032 28.9434 21.9742C28.9434 22.2 29.0111 22.4108 29.1466 22.6065C29.2821 22.7871 29.4176 22.9828 29.5531 23.1935C29.6886 23.4043 29.7563 23.6527 29.7563 23.9387C29.7563 24.2849 29.6359 24.5634 29.395 24.7742C29.1541 24.9699 28.823 25.0677 28.4015 25.0677C27.8896 25.0677 27.4832 24.9097 27.1821 24.5935C26.881 24.2774 26.7305 23.8559 26.7305 23.329C26.7305 22.6817 26.9563 22.1097 27.4079 21.6129C27.8595 21.1161 28.4767 20.7247 29.2595 20.4387C30.0423 20.1527 30.938 20.0097 31.9466 20.0097C33.2864 20.0097 34.3326 20.2656 35.0853 20.7774C35.8531 21.2892 36.2369 22.0194 36.2369 22.9677C36.2369 23.5699 36.0789 24.1344 35.7628 24.6613C35.4466 25.1731 35.0025 25.6774 34.4305 26.1742C33.8735 26.671 33.2187 27.1753 32.466 27.6871C31.7283 28.1839 30.9305 28.7183 30.0724 29.2903V29.4032H34.7015C35.3337 29.4032 35.7477 29.3204 35.9434 29.1548C36.1541 28.9742 36.2896 28.643 36.3498 28.1613H37.2305C37.2305 29.2 37.238 30.0129 37.2531 30.6C37.2681 31.172 37.2907 31.6763 37.3208 32.1129Z" fill="white"/>
</svg>
