<svg width="584" height="513" viewBox="0 0 584 513" fill="none" xmlns="http://www.w3.org/2000/svg">
<path fill-rule="evenodd" clip-rule="evenodd" d="M-191.83 1033.69C-314.572 983.757 -430.681 894.856 -475.52 780.151C-516.978 674.094 -428.627 576.125 -412.797 468.421C-400.071 381.831 -434.765 288.585 -392.063 212.308C-344.755 127.804 -265.736 59.2692 -166.406 28.3034C-62.3732 -4.12831 64.7305 -17.1905 163.726 39.0435C259.676 93.5473 249.561 222.437 319.013 304.042C395.003 393.33 572.608 422.771 583 531.684C593.179 638.378 424.27 668.525 361.966 754.248C292.952 849.204 311.774 1000.45 202.059 1055.82C88.392 1113.17 -65.6136 1085.04 -191.83 1033.69Z" fill="#FDC435"/>
</svg>
