<svg width="556" height="212" viewBox="0 0 556 212" fill="none" xmlns="http://www.w3.org/2000/svg">
<path fill-rule="evenodd" clip-rule="evenodd" d="M492.114 -739.283C606.57 -734.163 726.967 -694.123 796.851 -610.76C861.466 -533.682 818.05 -424.235 836.507 -328.464C851.346 -251.469 906.726 -183.171 894.16 -105.836C880.239 -20.158 835.854 61.604 764.001 117.762C688.745 176.578 589.071 225.998 492.114 208.387C398.139 191.318 368.865 79.3746 288.576 31.4077C200.728 -21.075 47.5708 7.68854 7.41583 -81.1843C-31.9211 -168.246 96.815 -244.724 122.59 -335.96C151.141 -437.023 91.8007 -559.116 165.009 -639.021C240.854 -721.803 374.417 -744.547 492.114 -739.283Z" fill="#FDC435"/>
</svg>
