<svg width="48" height="48" viewBox="0 0 48 48" fill="none" xmlns="http://www.w3.org/2000/svg">
<rect width="48" height="48" rx="24" fill="#319C96"/>
<path d="M17.571 32.3161C16.3215 32.3161 15.215 32.0677 14.2516 31.571C13.3032 31.0591 12.5581 30.3516 12.0161 29.4484C11.4742 28.5452 11.2032 27.5065 11.2032 26.3323C11.2032 25.0978 11.4892 24.0065 12.0613 23.0581C12.6333 22.1097 13.4161 21.3645 14.4097 20.8226C15.4032 20.2806 16.5473 20.0097 17.8419 20.0097C19.1064 20.0097 20.2129 20.2581 21.1613 20.7548C22.1247 21.2516 22.8699 21.9516 23.3968 22.8548C23.9387 23.743 24.2097 24.7817 24.2097 25.971C24.2097 27.2054 23.9236 28.3043 23.3516 29.2677C22.7796 30.2161 21.9968 30.9613 21.0032 31.5032C20.0097 32.0452 18.8656 32.3161 17.571 32.3161ZM17.6613 31.4355C18.6699 31.4355 19.4602 30.9538 20.0322 29.9903C20.6193 29.0118 20.9129 27.7022 20.9129 26.0613C20.9129 24.4505 20.6269 23.186 20.0548 22.2677C19.4978 21.3344 18.7301 20.8677 17.7516 20.8677C16.7581 20.8677 15.9677 21.357 15.3806 22.3355C14.7935 23.2989 14.5 24.6086 14.5 26.2645C14.5 27.8602 14.7785 29.1247 15.3355 30.0581C15.9075 30.9763 16.6828 31.4355 17.6613 31.4355ZM25.6292 31.3452V30.1484L33.6454 20.1L34.0067 21.0484L27.5486 29.2L27.2776 28.8613H37.5744V31.3452H25.6292ZM32.268 35.1839V22.7645L33.6454 20.1H34.8196V35.1839H32.268Z" fill="white"/>
</svg>
