<svg width="48" height="48" viewBox="0 0 48 48" fill="none" xmlns="http://www.w3.org/2000/svg">
<rect width="48" height="48" rx="24" fill="#319C96"/>
<path d="M17.5436 32.3161C16.2941 32.3161 15.1877 32.0677 14.2243 31.571C13.2759 31.0591 12.5307 30.3516 11.9888 29.4484C11.4468 28.5452 11.1759 27.5065 11.1759 26.3323C11.1759 25.0978 11.4619 24.0065 12.0339 23.0581C12.606 22.1097 13.3888 21.3645 14.3823 20.8226C15.3759 20.2806 16.52 20.0097 17.8146 20.0097C19.0791 20.0097 20.1855 20.2581 21.1339 20.7548C22.0974 21.2516 22.8425 21.9516 23.3694 22.8548C23.9114 23.743 24.1823 24.7817 24.1823 25.971C24.1823 27.2054 23.8963 28.3043 23.3243 29.2677C22.7522 30.2161 21.9694 30.9613 20.9759 31.5032C19.9823 32.0452 18.8382 32.3161 17.5436 32.3161ZM17.6339 31.4355C18.6425 31.4355 19.4329 30.9538 20.0049 29.9903C20.592 29.0118 20.8855 27.7022 20.8855 26.0613C20.8855 24.4505 20.5995 23.186 20.0275 22.2677C19.4705 21.3344 18.7028 20.8677 17.7243 20.8677C16.7307 20.8677 15.9404 21.357 15.3533 22.3355C14.7662 23.2989 14.4726 24.6086 14.4726 26.2645C14.4726 27.8602 14.7511 29.1247 15.3081 30.0581C15.8802 30.9763 16.6554 31.4355 17.6339 31.4355ZM31.4016 35.3871C30.393 35.3871 29.4973 35.2516 28.7145 34.9806C27.9468 34.7097 27.3446 34.3333 26.9081 33.8516C26.4715 33.3699 26.2532 32.8129 26.2532 32.1806C26.2532 31.6237 26.4188 31.1796 26.75 30.8484C27.0962 30.5022 27.5478 30.329 28.1048 30.329C28.5414 30.329 28.8951 30.4344 29.1661 30.6452C29.4371 30.8559 29.5726 31.1419 29.5726 31.5032C29.5726 31.7892 29.4973 32.0452 29.3468 32.271C29.2113 32.5118 29.0683 32.7226 28.9177 32.9032C28.7672 33.0989 28.6919 33.3097 28.6919 33.5355C28.6919 33.8065 28.8575 34.0172 29.1887 34.1677C29.5199 34.3333 29.9715 34.4161 30.5435 34.4161C31.5973 34.4161 32.4253 34.1226 33.0274 33.5355C33.6296 32.9634 33.9306 32.1731 33.9306 31.1645C33.9306 30.4118 33.7575 29.757 33.4113 29.2C33.065 28.643 32.5758 28.2366 31.9435 27.9806C31.6575 28.071 31.4167 28.1387 31.221 28.1839C31.0253 28.229 30.8446 28.2516 30.679 28.2516C30.4382 28.2516 30.2425 28.1989 30.0919 28.0935C29.9564 27.9882 29.8887 27.8527 29.8887 27.6871C29.8887 27.4914 29.9715 27.3409 30.1371 27.2355C30.3177 27.1301 30.5586 27.0774 30.8597 27.0774C31.0102 27.0774 31.1683 27.0925 31.3339 27.1226C31.5145 27.1376 31.7102 27.1602 31.921 27.1903C32.4629 26.8591 32.8844 26.4226 33.1855 25.8806C33.4865 25.3237 33.6371 24.6989 33.6371 24.0065C33.6371 23.0731 33.3812 22.343 32.8693 21.8161C32.3575 21.2892 31.65 21.0258 30.7468 21.0258C30.1898 21.0258 29.7382 21.1161 29.3919 21.2968C29.0607 21.4774 28.8951 21.7108 28.8951 21.9968C28.8951 22.2075 28.9629 22.4108 29.0984 22.6065C29.2339 22.7871 29.3618 22.9828 29.4822 23.1935C29.6177 23.3892 29.6855 23.6226 29.6855 23.8935C29.6855 24.2247 29.565 24.4882 29.3242 24.6839C29.0833 24.8796 28.7521 24.9774 28.3306 24.9774C27.8188 24.9774 27.4124 24.8269 27.1113 24.5258C26.8102 24.2097 26.6597 23.8032 26.6597 23.3065C26.6597 22.6742 26.8855 22.1172 27.3371 21.6355C27.8038 21.1387 28.4285 20.7473 29.2113 20.4613C29.9941 20.1602 30.8747 20.0097 31.8532 20.0097C33.3134 20.0097 34.4876 20.3333 35.3758 20.9806C36.264 21.6129 36.7081 22.4634 36.7081 23.5323C36.7081 24.4054 36.3769 25.1882 35.7145 25.8806C35.0521 26.5581 34.1113 27.1 32.8919 27.5065C34.2468 27.7323 35.3081 28.1839 36.0758 28.8613C36.8435 29.5237 37.2274 30.3366 37.2274 31.3C37.2274 32.0978 36.979 32.8054 36.4822 33.4226C35.9855 34.0398 35.3005 34.5215 34.4274 34.8677C33.5543 35.214 32.5457 35.3871 31.4016 35.3871Z" fill="white"/>
</svg>
