<svg width="48" height="48" viewBox="0 0 48 48" fill="none" xmlns="http://www.w3.org/2000/svg">
<rect width="48" height="48" rx="24" fill="#E50914"/>
<path d="M19.2253 32.3161C17.9758 32.3161 16.8693 32.0677 15.9059 31.571C14.9575 31.0591 14.2123 30.3516 13.6704 29.4484C13.1285 28.5452 12.8575 27.5065 12.8575 26.3323C12.8575 25.0978 13.1435 24.0065 13.7156 23.0581C14.2876 22.1097 15.0704 21.3645 16.064 20.8226C17.0575 20.2806 18.2016 20.0097 19.4962 20.0097C20.7607 20.0097 21.8672 20.2581 22.8156 20.7548C23.779 21.2516 24.5242 21.9516 25.0511 22.8548C25.593 23.743 25.864 24.7817 25.864 25.971C25.864 27.2054 25.5779 28.3043 25.0059 29.2677C24.4339 30.2161 23.6511 30.9613 22.6575 31.5032C21.664 32.0452 20.5199 32.3161 19.2253 32.3161ZM19.3156 31.4355C20.3242 31.4355 21.1145 30.9538 21.6865 29.9903C22.2736 29.0118 22.5672 27.7022 22.5672 26.0613C22.5672 24.4505 22.2812 23.186 21.7091 22.2677C21.1521 21.3344 20.3844 20.8677 19.4059 20.8677C18.4123 20.8677 17.622 21.357 17.0349 22.3355C16.4478 23.2989 16.1543 24.6086 16.1543 26.2645C16.1543 27.8602 16.4328 29.1247 16.9898 30.0581C17.5618 30.9763 18.3371 31.4355 19.3156 31.4355ZM27.9633 32V31.1194C28.8213 31.1043 29.4536 30.9763 29.86 30.7355C30.2815 30.4946 30.4923 30.0355 30.4923 29.3581V24.3452C30.4923 23.6226 30.417 23.0882 30.2665 22.7419C30.131 22.3957 29.8676 22.1699 29.4762 22.0645C29.0998 21.9441 28.5504 21.8839 27.8278 21.8839V21.0032C29.1977 20.9731 30.3267 20.8753 31.2149 20.7097C32.1181 20.5441 32.9159 20.2581 33.6084 19.8516V29.4258C33.6084 30.0581 33.774 30.4946 34.1052 30.7355C34.4364 30.9763 35.0235 31.1043 35.8665 31.1194V32C35.5052 31.9849 34.9708 31.9699 34.2633 31.9548C33.5557 31.9247 32.8407 31.9097 32.1181 31.9097C31.3052 31.9097 30.5073 31.9247 29.7245 31.9548C28.9568 31.9699 28.3697 31.9849 27.9633 32Z" fill="white"/>
</svg>
